<svg version="1.2" xmlns="http://www.w3.org/2000/svg" viewBox="0 0 505 110" width="505" height="110">
	<style>
		.s0 { fill: #e86e3d;stroke: #5b3149;stroke-miterlimit:100;stroke-width: 4.8 } 
	</style>
	<path id="disclaw" fill-rule="evenodd" class="s0" d="m35.09 101.05q-4.33 0-8.07-1.28-3.75-1.29-6.2-3.16-2.34-1.87-4.1-5.03-1.75-3.16-2.69-5.97-0.94-2.93-1.4-7.14-0.71-6.2-0.71-14.15 0-16.27 5.97-24.69 5.97-8.54 16.38-8.54 10.65 0 15.45 5.03 1.05 1.17 1.63 2.81h0.94l-1.4-8.08v-14.62q0-2.58 6.55-5.03 6.55-2.46 14.15-2.46 7.96 0 10.18 3.04 0.82 1.17 0.82 2.34v83.07q0 1.29-6.55 2.11-6.43 0.7-12.52 0.7-5.97 0-7.72-0.35-1.64-0.47-2.11-0.94-0.35-0.46-0.46-1.52l-0.94-6.67h-0.94q-1.05 4.1-4.21 6.91-3.98 3.62-12.05 3.62zm13.1-17.08q1.88 0 2.81-2.34v-31.24q0-1.17-1.28-1.75-1.17-0.7-2.11-0.7-3.98-0.01-3.98 18.25 0 9.71 1.06 13.8 1.17 3.98 3.5 3.98zm75.08-44.46v57.68q0 1.29-6.79 2.11-6.66 0.7-13.8 0.7-7.02 0-9.13-0.58-1.99-0.71-1.99-2.23v-55.57q0-2.58 6.56-5.03 6.66-2.58 14.5-2.58 10.65 0 10.65 5.5zm-15.91-30.77q7.72 0 12.05 2.34 4.45 2.22 4.45 8.19-0.01 10.53-16.38 10.53-16.39 0-16.38-10.53 0-10.53 16.26-10.53zm56.56 92.31q-19.42 0-28.43-3.74-4.56-1.99-4.56-3.86 0-4.8 2.8-11.23 2.81-6.44 4.92-6.44 1.17 0 7.84 2.58 6.78 2.57 11.35 2.57 4.67 0 6.08-0.59 1.52-0.58 1.52-2.22 0-1.75-2.34-2.69-2.34-1.05-5.85-1.4-3.51-0.35-7.6-1.41-3.98-1.05-7.49-2.69-3.51-1.64-5.85-5.38-2.34-3.86-2.34-8.19 0-4.45 0.23-6.55 0.24-2.23 1.87-6.09 1.76-3.97 4.8-6.43 3.16-2.46 9.59-4.45 6.56-1.99 14.63-1.99 8.07 0 13.45 0.59 5.5 0.47 8.55 1.28 3.15 0.82 5.14 1.88 3.4 1.75 3.4 3.86 0 4.56-3.28 10.53-3.28 5.97-5.26 5.97-1.88 0-8.31-1.99-6.44-2.11-9.48-2.11-4.91 0-4.91 2.81 0 1.75 3.27 2.69 3.4 0.82 8.08 1.75 4.68 0.94 9.36 2.7 4.79 1.63 8.07 6.08 3.39 4.44 3.39 11.23 0 22.93-32.64 22.93zm54.27-3.04q-2.81-1.29-6.09-3.86-3.16-2.57-5.26-6.08-4.91-8.43-4.91-22 0-8.42 2.69-14.98 2.69-6.67 6.55-10.29 3.86-3.63 8.89-5.97 8.07-3.74 16.15-3.74 13.57 0 18.83 2.1 5.39 2.11 5.39 7.14 0 5.03-1.88 10.76-1.75 5.62-4.68 5.62-0.93 0-5.73-1.99-4.68-1.99-8.19-1.99-3.39 0-5.26 2.81-1.76 2.69-1.76 10.65 0 7.84 1.64 10.76 1.64 2.81 5.03 2.81 3.51 0 8.66-2.34 5.14-2.34 5.73-2.34 2.22 0 4.21 5.26 2.11 5.27 2.11 9.36 0 6.32-6.55 8.9-6.56 2.45-17.79 2.45-11.11 0-17.78-3.04zm80.5-83.89v83.07q0 1.29-6.67 2.11-6.67 0.7-13.81 0.7-7.02 0-9.13-0.58-1.98-0.71-1.98-2.23v-80.96q0-2.58 6.55-5.03 6.67-2.46 14.27-2.46 10.77 0 10.77 5.38zm30.63 86.93q-10.64 0-16.73-5.03-2.45-2.1-4.33-6.2-1.75-4.09-1.75-9.59 0-5.5 2.57-9.6 2.69-4.09 6.44-6.32 3.74-2.22 8.77-3.62 7.61-1.99 16.73-1.99h3.87q0-4.8-3.28-6.79-1.4-0.82-4.33-0.82-2.81 0-6.9 1.52-3.98 1.53-6.67 3.16-2.69 1.52-3.63 1.52-2.1 0.01-5.73-5.49-3.63-5.62-3.63-10.18 0-1.52 4.33-3.98 4.33-2.46 12.17-4.45 7.96-2.1 15.44-2.1 7.49 0 12.87 1.28 5.5 1.17 8.9 2.93 3.51 1.75 5.84 4.68 2.46 2.92 3.63 5.26 1.29 2.34 1.87 6.09 0.82 4.33 0.82 10.64v35.22q0 1.29-6.32 2.11-6.2 0.7-12.4 0.7-6.08 0-7.95-0.35-1.76-0.35-2.11-0.82-0.35-0.47-0.58-1.64l-0.94-6.67h-0.94q-2.92 10.53-16.03 10.53zm15.68-19.42v-13.69q-3.04 0-4.91 2.58-1.87 2.57-1.87 5.85 0 7.72 3.51 7.72 1.52 0 2.34-0.7 0.93-0.82 0.93-1.76zm128.9 15.56q-1.52 2.81-15.91 2.81-14.28 0-14.86-2.81l-3.98-21.29h-1.64l-3.74 21.29q-0.35 2.81-20.48 2.81-5.61 0-7.49-0.58-1.75-0.71-2.45-2.23-21.77-53.47-21.77-56.27 0-2.81 8.43-5.74 8.54-3.04 16.38-3.04 10.06 0 10.41 5.38l3.98 32.06h1.4l1.41-25.86q0.11-2.92 5.97-5.15 5.84-2.22 11.81-2.22 5.97 0 8.89 1.52 3.05 1.41 3.16 3.51l1.29 28.2h1.29l3.86-30.07q0.35-2.81 7.84-5.03 7.6-2.34 13.34-2.34 5.73 0 9 1.64 5.39 2.57 5.39 6.08 0 0.35-10.65 28.55-10.53 28.2-10.88 28.78z"/>
</svg>